<svg width="231" height="80" viewBox="0 0 231 80" fill="none" xmlns="http://www.w3.org/2000/svg">
<path fill-rule="evenodd" clip-rule="evenodd" d="M28.1819 3.37262C28.6308 2.05666 29.8849 0.864558 31.3711 0.384616C32.0369 0.152392 33.7554 0.322696 34.4985 0.694255C36.1086 1.46835 37.1304 3.09395 37.1614 4.88985C37.1614 5.75684 37.084 6.09744 36.6814 6.91797L36.186 7.90882L36.8208 9.36412C37.5329 10.9588 38.9573 13.4359 39.2359 13.5287C39.3443 13.5597 40.2577 12.7546 41.2796 11.7483L43.1529 9.92147L42.998 9.10092C42.611 7.10376 43.6483 5.12207 45.6145 4.10027C46.6053 3.57389 48.4941 3.57389 49.485 4.10027C51.0486 4.90533 51.9621 6.26774 52.0859 8.00171C52.1943 9.48797 51.8227 10.4633 50.77 11.5316L49.9184 12.3676L50.0268 13.6216C50.1352 14.8911 50.5377 17.4457 50.6306 17.554C50.7545 17.6624 53.0922 16.4858 54.3308 15.6807L55.6003 14.8602L55.6313 13.9003C55.6777 11.4542 57.7523 9.3796 60.152 9.3796C61.4989 9.3796 62.4433 9.78212 63.4187 10.742C64.4405 11.7638 64.812 12.6618 64.812 14.0861C64.812 15.8201 63.6973 17.5076 62.0872 18.2352C61.4834 18.4984 61.3905 18.6068 60.9415 19.7834C60.539 20.8362 60.0591 22.5392 59.7804 23.8242C59.7494 23.9945 59.8888 24.1648 60.1675 24.3196C61.5299 25.0163 62.3349 26.3323 62.3349 27.8495C62.3349 28.3449 62.242 28.9797 62.1182 29.2583C61.824 29.9705 60.8951 30.9614 60.2449 31.271L59.703 31.5342V42.5263C59.703 49.0287 59.6411 54.1223 59.5482 55.0202C58.5573 64.2784 53.2625 72.1277 45.0726 76.4317C37.5175 80.426 28.2128 80.5034 20.5029 76.6639C13.0251 72.9173 7.66837 65.9195 5.98085 57.745C5.46994 55.2834 5.36157 52.5121 5.36157 41.7058V31.5342L4.86615 31.271C3.16314 30.4195 2.3426 28.4223 2.9464 26.5955C3.24055 25.7285 4.1385 24.7067 4.89711 24.397C5.14482 24.2887 5.36157 24.1184 5.36157 24.01C5.36157 23.5765 4.57199 20.8052 4.1385 19.737C3.73597 18.6842 3.6276 18.5604 2.9464 18.2043C1.21242 17.3063 0.345438 15.913 0.329956 14.0242C0.329956 13.0643 0.407366 12.7082 0.763449 11.9806C1.22791 11.0362 1.90911 10.355 2.93091 9.81309C3.85983 9.30219 5.9344 9.30219 6.86331 9.81309C8.47343 10.6646 9.3559 12.0115 9.51072 13.8229C9.55716 14.5196 9.66553 14.9376 9.83584 15.0769C10.4241 15.5414 12.9477 16.9812 13.6753 17.2599C14.4185 17.554 14.4804 17.554 14.5578 17.3063C14.7281 16.8109 15.1152 13.7919 15.1152 13.0333C15.1152 12.3366 15.0687 12.2283 14.5114 11.7483C14.1708 11.4697 13.7063 10.8349 13.4586 10.3395C12.5761 8.54357 13.0251 6.14389 14.4494 4.87437C15.3938 4.05383 16.2763 3.72871 17.5923 3.74419C18.9701 3.74419 19.9455 4.14672 20.8899 5.09112C21.9427 6.14389 22.4691 7.95527 22.113 9.27123L21.9427 9.85954L23.1348 11.1136C23.785 11.7948 24.652 12.6308 25.07 12.9869L25.8441 13.6216L26.1383 13.2501C26.6646 12.5844 27.6865 10.742 28.3057 9.31767L28.9095 7.9243L28.476 7.07279C27.9342 5.98906 27.8103 4.5028 28.1819 3.37262ZM34.8391 4.5028C34.7152 3.80612 34.1114 3.06298 33.4302 2.78431C32.749 2.49015 32.1762 2.50564 31.526 2.84624C30.0242 3.60485 29.8539 5.77232 31.2318 6.76316C31.9285 7.25858 33.167 7.27407 33.8018 6.8096C34.4675 6.32967 34.9784 5.19949 34.8391 4.5028ZM19.8526 8.57454C19.992 7.754 19.4656 6.74768 18.6915 6.31419C16.6943 5.18401 14.5114 7.28955 15.5641 9.33316C15.9667 10.1382 17.0194 10.6956 17.8709 10.5562C18.8618 10.4014 19.6978 9.56539 19.8526 8.57454ZM48.8657 10.1537C50.2436 9.17833 50.0733 7.07279 48.556 6.26774C46.853 5.3543 44.8094 6.94894 45.3048 8.7758C45.7538 10.4324 47.5188 11.1136 48.8657 10.1537ZM4.89711 16.269C7.23488 16.269 8.03994 13.0798 5.98085 11.996C4.41717 11.16 2.65224 12.2128 2.65224 13.9777C2.65224 15.2937 3.59663 16.269 4.89711 16.269ZM61.2357 16.0059C62.8923 15.1234 62.9077 12.8011 61.2512 11.9806C59.285 10.9897 57.1949 13.0953 58.2013 15.0615C58.805 16.2071 60.1055 16.6096 61.2357 16.0059ZM24.3114 15.464L22.4845 13.699C21.4782 12.7237 20.6112 11.9186 20.5493 11.9031C20.5029 11.8877 20.2861 12.0115 20.1003 12.1663C19.7133 12.4915 18.3818 12.9404 17.809 12.9404C17.4994 12.9404 17.4684 13.0333 17.3755 14.2099C17.3136 14.9221 17.1588 16.0213 17.0349 16.6561C17.0163 16.7554 16.9987 16.8484 16.9821 16.9355L16.9818 16.9371C16.8504 17.6283 16.7903 17.9443 16.9205 18.0879C17.0302 18.2089 17.2749 18.2076 17.7258 18.2051H17.7265C17.7267 18.2051 17.727 18.2051 17.7272 18.2051C17.7961 18.2047 17.8697 18.2043 17.9483 18.2043C19.93 18.2043 22.0665 17.3992 23.6147 16.0523L24.3114 15.464ZM46.884 12.863C46.4969 12.8011 45.8157 12.5689 45.3823 12.3521C44.9642 12.1199 44.5772 11.9186 44.5308 11.9031C44.4843 11.8877 43.9734 12.3831 43.3696 13.0024C42.7813 13.6216 41.9453 14.4267 41.5118 14.7828L40.7532 15.433L41.2021 15.8201C42.0691 16.5477 43.478 17.4147 44.3604 17.7553C45.4442 18.1733 48.3548 18.2817 48.2774 17.9101C48.2154 17.6469 47.8284 14.7518 47.7045 13.699L47.6116 12.9714L46.884 12.863ZM31.3711 51.1807V41.4271V31.6735H19.6359C13.1799 31.6735 7.83867 31.72 7.79223 31.7819C7.7303 31.8283 7.68385 36.2252 7.68385 41.5355V51.1807H19.5275H31.3711ZM31.3711 77.1903V65.3466V53.503H19.6049H7.83867V54.1842C7.83867 55.3608 8.4115 58.3179 8.98433 60.0518C11.0589 66.3684 15.5796 71.5858 21.5401 74.5584C24.3578 75.9517 27.2375 76.7723 30.4887 77.0974L31.3711 77.1903ZM48.9895 70.9356C53.8973 66.4923 56.6221 61.0272 57.2878 54.308L57.3652 53.503H45.5371H33.6934V65.3466V77.2058L34.6688 77.1129C40.1029 76.5555 45.1965 74.3726 48.9895 70.9356ZM38.0438 26.2549H17.2981L9.80487 26.2858L5.94988 26.3323L5.50091 26.8432C5.2532 27.1218 5.05193 27.5244 5.05193 27.7411C5.05193 28.252 5.43898 28.9952 5.81054 29.1964C6.01181 29.3048 13.0251 29.3512 27.1756 29.3512H48.2309H55.6158H59.1147L59.5637 28.9023C60.0436 28.4223 60.1675 27.6173 59.8578 27.0135C59.84 26.981 59.8246 26.95 59.8098 26.9202L59.8097 26.9201L59.8096 26.9199L59.8095 26.9197C59.7874 26.8752 59.7667 26.8336 59.7418 26.7948C59.3932 26.2537 58.2046 26.2538 40.4799 26.2548C39.7003 26.2548 38.8887 26.2549 38.0438 26.2549ZM32.5323 9.45701C32.9658 9.45701 33.5231 9.41056 33.7708 9.34864C34.2287 9.25706 34.2352 9.2708 34.9027 10.6802L34.932 10.742C37.5175 16.2845 40.8461 19.3809 45.181 20.2788C47.1627 20.6814 48.8812 20.573 51.0331 19.8763C52.2562 19.4893 54.5011 18.3746 55.7396 17.554L56.6376 16.9657L57.2104 17.4766C57.5201 17.7553 58.0155 18.0804 58.3096 18.2043C58.6038 18.3126 58.867 18.421 58.8979 18.4365C58.9134 18.452 58.6967 19.1951 58.4025 20.0776C58.1084 20.9601 57.7678 22.1676 57.6439 22.7714L57.4272 23.8552L37.3472 23.9326L17.2517 24.01L10.7183 23.9635L7.69934 23.9171L7.59096 23.3443C7.45162 22.4463 6.9562 20.6814 6.55368 19.5512L6.18211 18.5139L6.81687 18.2198C7.15747 18.0495 7.69933 17.7089 7.99349 17.4611L8.51988 17.0122L9.58813 17.7089C11.0434 18.6378 13.2264 19.6596 14.7281 20.0931C16.524 20.604 19.5275 20.604 21.0757 20.0931C23.6766 19.2261 25.5809 17.8327 27.2839 15.5569C28.6154 13.7765 29.3121 12.6308 30.2255 10.711C30.9067 9.27123 30.9377 9.22478 31.3402 9.33316C31.5724 9.41056 32.1143 9.45701 32.5323 9.45701ZM57.3807 31.6735H54.6714H41.0318H33.6934V41.4271V51.1807H45.5371H57.3807V41.4271V31.6735Z" fill="black"/>
<path d="M31.3711 65.3466V77.1903L30.4887 77.0974C27.2375 76.7723 24.3578 75.9517 21.5401 74.5584C15.5796 71.5858 11.0589 66.3684 8.98433 60.0518C8.4115 58.3179 7.83867 55.3608 7.83867 54.1842V53.503H19.6049H31.3711V65.3466Z" fill="#262626"/>
<path d="M54.6714 31.6735H57.3807V41.4271V51.1807H45.5371H33.6934V41.4271V31.6735H41.0318H54.6714Z" fill="#262626"/>
<path d="M31.3711 41.4271V51.1807H19.5275H7.68385V41.5355C7.68385 36.2252 7.7303 31.8283 7.79223 31.7819C7.83867 31.72 13.1799 31.6735 19.6359 31.6735H31.3711V41.4271Z" fill="white"/>
<path d="M57.2878 54.308C56.6221 61.0272 53.8973 66.4923 48.9895 70.9356C45.1965 74.3726 40.1029 76.5555 34.6688 77.1129L33.6934 77.2058V65.3466V53.503H45.5371H57.3652L57.2878 54.308Z" fill="white"/>
<path d="M17.2981 26.2549H38.0438C38.8887 26.2549 39.7003 26.2548 40.4799 26.2548C58.2046 26.2538 59.3932 26.2537 59.7418 26.7948C59.7667 26.8336 59.7874 26.8752 59.8095 26.9197L59.8096 26.9199L59.8097 26.9201L59.8098 26.9202C59.8246 26.95 59.84 26.981 59.8578 27.0135C60.1675 27.6173 60.0436 28.4223 59.5637 28.9023L59.1147 29.3512H55.6158H48.2309H27.1756C13.0251 29.3512 6.01181 29.3048 5.81054 29.1964C5.43898 28.9952 5.05193 28.252 5.05193 27.7411C5.05193 27.5244 5.2532 27.1218 5.50091 26.8432L5.94988 26.3323L9.80487 26.2858L17.2981 26.2549Z" fill="#5C5C5C"/>
<path d="M32.5323 9.45701C32.9658 9.45701 33.5231 9.41056 33.7708 9.34864C34.2287 9.25706 34.2352 9.2708 34.9027 10.6802L34.932 10.742C37.5175 16.2845 40.8461 19.3809 45.181 20.2788C47.1627 20.6814 48.8812 20.573 51.0331 19.8763C52.2562 19.4893 54.5011 18.3746 55.7396 17.554L56.6376 16.9657L57.2104 17.4766C57.5201 17.7553 58.0155 18.0804 58.3096 18.2043C58.6038 18.3126 58.867 18.421 58.8979 18.4365C58.9134 18.452 58.6967 19.1951 58.4025 20.0776C58.1084 20.9601 57.7678 22.1676 57.6439 22.7714L57.4272 23.8552L37.3472 23.9326L17.2517 24.01L10.7183 23.9635L7.69934 23.9171L7.59096 23.3443C7.45162 22.4463 6.9562 20.6814 6.55368 19.5512L6.18211 18.5139L6.81687 18.2198C7.15747 18.0495 7.69933 17.7089 7.99349 17.4611L8.51988 17.0122L9.58813 17.7089C11.0434 18.6378 13.2264 19.6596 14.7281 20.0931C16.524 20.604 19.5275 20.604 21.0757 20.0931C23.6766 19.2261 25.5809 17.8327 27.2839 15.5569C28.6154 13.7765 29.3121 12.6308 30.2255 10.711C30.9067 9.27123 30.9377 9.22478 31.3402 9.33316C31.5724 9.41056 32.1143 9.45701 32.5323 9.45701Z" fill="#5C5C5C"/>
<path d="M45.3823 12.3521C45.8157 12.5689 46.4969 12.8011 46.884 12.863L47.6116 12.9714L47.7045 13.699C47.8284 14.7518 48.2154 17.6469 48.2774 17.9101C48.3548 18.2817 45.4442 18.1733 44.3604 17.7553C43.478 17.4147 42.0691 16.5477 41.2021 15.8201L40.7532 15.433L41.5118 14.7828C41.9453 14.4267 42.7813 13.6216 43.3696 13.0024C43.9734 12.3831 44.4843 11.8877 44.5308 11.9031C44.5772 11.9186 44.9642 12.1199 45.3823 12.3521Z" fill="#5C5C5C"/>
<path d="M48.556 6.26774C50.0733 7.07279 50.2436 9.17833 48.8657 10.1537C47.5188 11.1136 45.7538 10.4324 45.3048 8.7758C44.8094 6.94894 46.853 5.3543 48.556 6.26774Z" fill="#5C5C5C"/>
<path d="M61.2512 11.9806C62.9077 12.8011 62.8923 15.1234 61.2357 16.0059C60.1055 16.6096 58.805 16.2071 58.2013 15.0615C57.1949 13.0953 59.285 10.9897 61.2512 11.9806Z" fill="#5C5C5C"/>
<path d="M33.4302 2.78431C34.1114 3.06298 34.7152 3.80612 34.8391 4.5028C34.9784 5.19949 34.4675 6.32967 33.8018 6.8096C33.167 7.27407 31.9285 7.25858 31.2318 6.76316C29.8539 5.77232 30.0242 3.60485 31.526 2.84624C32.1762 2.50564 32.749 2.49015 33.4302 2.78431Z" fill="#5C5C5C"/>
<path d="M18.6915 6.31419C19.4656 6.74768 19.992 7.754 19.8526 8.57454C19.6978 9.56539 18.8618 10.4014 17.8709 10.5562C17.0194 10.6956 15.9667 10.1382 15.5641 9.33316C14.5114 7.28955 16.6943 5.18401 18.6915 6.31419Z" fill="#5C5C5C"/>
<path d="M22.4845 13.699L24.3114 15.464L23.6147 16.0523C22.0665 17.3992 19.93 18.2043 17.9483 18.2043C17.8697 18.2043 17.7961 18.2047 17.7272 18.2051H17.7265H17.7258C17.2749 18.2076 17.0302 18.2089 16.9205 18.0879C16.7903 17.9443 16.8504 17.6283 16.9818 16.9371L16.9821 16.9355C16.9987 16.8484 17.0163 16.7554 17.0349 16.6561C17.1588 16.0213 17.3136 14.9221 17.3755 14.2099C17.4684 13.0333 17.4994 12.9404 17.809 12.9404C18.3818 12.9404 19.7133 12.4915 20.1003 12.1663C20.2861 12.0115 20.5029 11.8877 20.5493 11.9031C20.6112 11.9186 21.4782 12.7237 22.4845 13.699Z" fill="#5C5C5C"/>
<path d="M5.98085 11.996C8.03994 13.0798 7.23488 16.269 4.89711 16.269C3.59663 16.269 2.65224 15.2937 2.65224 13.9777C2.65224 12.2128 4.41717 11.16 5.98085 11.996Z" fill="#5C5C5C"/>
<path d="M37.3471 39.5848C36.9755 39.8789 36.9446 39.9873 36.9446 41.1175C36.9446 42.2477 36.9755 42.356 37.3471 42.6502C37.9045 43.0837 38.276 43.0527 38.8179 42.5263C39.2049 42.1238 39.2669 41.9535 39.2669 41.1949C39.2669 39.5074 38.3844 38.7642 37.3471 39.5848Z" fill="white"/>
<path d="M52.2871 39.5538C51.6214 40.2195 51.6678 42.0464 52.349 42.6192C52.8444 43.0527 53.2005 43.0682 53.7269 42.6502C54.0985 42.356 54.1294 42.2477 54.1294 41.1175C54.1294 39.9873 54.0985 39.8789 53.7269 39.5848C53.216 39.1822 52.6741 39.1668 52.2871 39.5538Z" fill="white"/>
<path d="M42.9051 40.8853C42.4097 41.3652 42.4097 41.9071 42.9361 42.5263C43.5244 43.223 44.4224 43.5946 45.5371 43.5946C46.6518 43.5946 47.5497 43.223 48.138 42.5263C48.6644 41.9071 48.6644 41.3652 48.169 40.8853C47.689 40.3898 47.2091 40.3898 46.5434 40.8853C46.2492 41.102 45.8002 41.2723 45.5371 41.2723C45.2739 41.2723 44.8249 41.102 44.5307 40.8853C43.865 40.3898 43.3851 40.3898 42.9051 40.8853Z" fill="white"/>
<path d="M16.911 33.9803C16.1989 34.4603 16.0595 34.8628 16.044 36.4265V37.8663H14.7126C12.22 37.8663 11.7246 38.4546 11.7091 41.3497C11.7091 43.3159 11.8639 44.0126 12.4213 44.539C12.7774 44.8641 12.9941 44.926 14.3875 44.988L15.9666 45.0654L16.044 46.6445C16.106 48.0379 16.1679 48.2546 16.493 48.6107C17.0504 49.199 17.8709 49.3538 19.9919 49.2919C22.7322 49.2145 23.1657 48.812 23.1657 46.3039V44.988H24.5591C27.0671 44.988 27.3458 44.6319 27.3458 41.4736C27.3458 39.1048 27.2529 38.7642 26.4324 38.2224C25.9834 37.9127 25.7047 37.8663 24.5436 37.8663H23.1657V36.4884C23.1657 35.3273 23.1193 35.0486 22.8096 34.5996C22.2523 33.7791 21.9272 33.6862 19.5275 33.6862C17.6387 33.6862 17.2981 33.7326 16.911 33.9803ZM20.8434 37.3244C20.8434 39.6003 21.4163 40.1886 23.6766 40.1886H25.0235V41.4116V42.6347L23.6611 42.6966C21.3853 42.805 20.8434 43.3624 20.8434 45.6692V47.0006H19.6204H18.3973L18.3354 45.5453C18.2425 43.2695 17.7935 42.8205 15.5022 42.6966L14.0314 42.6192V41.4116V40.1886H15.3628C17.6851 40.1886 18.227 39.6777 18.3354 37.3554L18.3973 36.0085H19.6204H20.8434V37.3244Z" fill="black"/>
<path d="M20.8434 37.3244C20.8434 39.6003 21.4163 40.1886 23.6766 40.1886H25.0235V41.4116V42.6347L23.6611 42.6966C21.3853 42.805 20.8434 43.3624 20.8434 45.6692V47.0006H19.6204H18.3973L18.3354 45.5453C18.2425 43.2695 17.7935 42.8205 15.5022 42.6966L14.0314 42.6192V41.4116V40.1886H15.3628C17.6851 40.1886 18.227 39.6777 18.3354 37.3554L18.3973 36.0085H19.6204H20.8434V37.3244Z" fill="#262626"/>
<path d="M13.1179 60.6092C12.5451 61.182 12.5141 62.8386 13.056 63.4424C13.3966 63.8139 14.2636 63.7984 14.6506 63.4114C14.8983 63.1637 14.9603 62.9005 14.9603 62.018C14.9603 61.1356 14.8983 60.8724 14.6506 60.6247C14.2636 60.2376 13.505 60.2221 13.1179 60.6092Z" fill="white"/>
<path d="M25.9834 60.6711C25.5034 61.182 25.4879 62.885 25.9524 63.3804C26.4169 63.8759 27.2219 63.8449 27.6399 63.3185C28.1354 62.6838 28.1044 61.213 27.578 60.7021C27.0981 60.2067 26.4323 60.1912 25.9834 60.6711Z" fill="white"/>
<path d="M17.9328 61.7548C16.942 62.8076 18.3663 64.3248 20.3325 64.3403C21.3234 64.3403 21.7414 64.1855 22.4536 63.5662C22.8871 63.1792 23.0109 62.9469 23.0109 62.5444C23.0109 61.8942 22.5465 61.3988 21.9427 61.3988C21.7104 61.3988 21.3234 61.5381 21.1066 61.7084C20.8899 61.8787 20.5338 62.018 20.3016 62.018C20.0693 62.018 19.7133 61.8787 19.4965 61.7084C18.9701 61.2904 18.3509 61.3213 17.9328 61.7548Z" fill="white"/>
<path d="M40.877 55.7633C40.1029 56.1349 39.8862 56.6923 39.8862 58.2869V59.6957H38.5547C37.0066 59.6957 36.3718 59.928 35.9383 60.6711C35.6751 61.1046 35.6287 61.4607 35.6287 63.334C35.6287 65.1609 35.6751 65.5789 35.9073 65.935C36.3873 66.6781 36.8517 66.8484 38.4154 66.9413L39.8862 67.0187V68.443C39.8862 69.6816 39.9326 69.9293 40.2268 70.3008C40.7686 70.9975 41.3724 71.1523 43.447 71.1523C46.4505 71.1523 47.0079 70.7189 47.0079 68.3501V67.0187L48.4477 66.9413C50.9093 66.8174 51.188 66.4459 51.188 63.303C51.188 60.9343 51.0951 60.5937 50.2745 60.0518C49.8256 59.7422 49.5469 59.6957 48.3857 59.6957H47.0079V58.3179C47.0079 57.1567 46.9614 56.878 46.6518 56.4291C46.466 56.1504 46.1254 55.8253 45.9241 55.7169C45.3358 55.4227 41.4963 55.4537 40.877 55.7633ZM44.6856 59.1539C44.6856 61.4297 45.2584 62.018 47.5188 62.018H48.8657V63.334V64.65H47.3949C45.9241 64.65 45.9086 64.65 45.3358 65.1763L44.763 65.7027L44.7165 67.2664L44.6546 68.8301H43.4315H42.2085V67.6999C42.2085 66.3065 42.0072 65.5789 41.4963 65.0989C41.1402 64.7738 40.9235 64.7119 39.5301 64.65L37.9509 64.5725L37.9045 63.2875L37.8581 62.018H39.2669C41.5892 62.018 42.0846 61.5691 42.1775 59.2623L42.2394 57.8379H43.4625H44.6856V59.1539Z" fill="black"/>
<path d="M44.6856 59.1539C44.6856 61.4297 45.2584 62.018 47.5188 62.018H48.8657V63.334V64.65H47.3949C45.9241 64.65 45.9086 64.65 45.3358 65.1763L44.763 65.7027L44.7165 67.2664L44.6546 68.8301H43.4315H42.2085V67.6999C42.2085 66.3065 42.0072 65.5789 41.4963 65.0989C41.1402 64.7738 40.9235 64.7119 39.5301 64.65L37.9509 64.5725L37.9045 63.2875L37.8581 62.018H39.2669C41.5892 62.018 42.0846 61.5691 42.1775 59.2623L42.2394 57.8379H43.4625H44.6856V59.1539Z" fill="#262626"/>
<path d="M83.416 21.4844C83.084 21.4974 82.8887 21.5755 82.8301 21.7188C82.7715 21.8555 82.8138 22.1029 82.957 22.4609L85.9648 29.8633L87.1562 26.6602L85.4766 22.4414C85.3333 22.0964 85.1576 21.8587 84.9492 21.7285C84.7409 21.5918 84.4121 21.5104 83.9629 21.4844C83.8001 21.0677 83.8001 20.6803 83.9629 20.3223H90.8574C91.0202 20.6803 91.0202 21.0677 90.8574 21.4844C90.1543 21.5104 89.6953 21.6081 89.4805 21.7773C89.2656 21.9401 89.2135 22.168 89.3242 22.4609L92.1172 29.8047L94.8613 22.4609C94.9915 22.1029 94.946 21.8652 94.7246 21.748C94.5098 21.6243 94.0736 21.5365 93.416 21.4844C93.2598 21.0677 93.2598 20.6803 93.416 20.3223H99.2168C99.3796 20.6803 99.3796 21.0677 99.2168 21.4844C98.2337 21.5495 97.6022 21.6471 97.3223 21.7773C97.0293 21.9271 96.821 22.1549 96.6973 22.4609L91.6973 35.6836H90.7012L88.084 28.9355L85.5352 35.6836H84.5586L79.0996 22.4609C78.9694 22.1419 78.7383 21.9173 78.4062 21.7871C78.0807 21.6504 77.5924 21.5495 76.9414 21.4844C76.7786 21.0677 76.7786 20.6803 76.9414 20.3223H83.416C83.5788 20.6803 83.5788 21.0677 83.416 21.4844ZM83.084 20.6445H77.2832C77.1986 20.7747 77.1986 20.9277 77.2832 21.1035C78.4551 21.2207 79.181 21.6211 79.4609 22.3047L84.8223 35.2832H85.2617L88.0352 27.8418L90.9844 35.2832H91.4238L96.3848 22.1777C96.528 21.8066 96.7884 21.5495 97.166 21.4062C97.5501 21.2565 98.0938 21.1556 98.7969 21.1035C98.8815 20.9277 98.8815 20.7747 98.7969 20.6445H93.8359C93.7578 20.7747 93.7578 20.9277 93.8359 21.1035C94.6107 21.1947 95.0859 21.3151 95.2617 21.4648C95.4766 21.6341 95.5221 21.8717 95.3984 22.1777L91.5996 32.4023L87.7422 22.3047C87.5924 21.9531 87.7454 21.6797 88.2012 21.4844C88.6569 21.2826 89.4023 21.1556 90.4375 21.1035C90.5221 20.9277 90.5221 20.7747 90.4375 20.6445H84.3047C84.2201 20.7747 84.2201 20.9277 84.3047 21.1035C84.7148 21.1426 85.0371 21.25 85.2715 21.4258C85.5059 21.5951 85.7012 21.888 85.8574 22.3047L87.5762 26.6602L85.4375 32.4023L81.3359 22.3047C81.1146 21.862 81.1374 21.569 81.4043 21.4258C81.6712 21.276 82.2311 21.1686 83.084 21.1035C83.1621 20.9277 83.1621 20.7747 83.084 20.6445ZM108.221 20.7227H103.309C102.495 20.7227 101.352 20.6966 99.8809 20.6445V21.1035C101.378 21.2467 102.133 21.5592 102.146 22.041C102.212 23.571 102.244 25.3906 102.244 27.5C102.244 29.5638 102.205 31.6178 102.127 33.6621C102.114 34.1439 101.359 34.4564 99.8613 34.5996C99.8353 34.8275 99.8353 34.9805 99.8613 35.0586C101.118 35.0195 104.038 35 108.621 35C110.223 35 111.427 34.7266 112.234 34.1797C113.042 33.6328 113.771 32.6921 114.422 31.3574C114.37 31.2533 114.256 31.1686 114.08 31.1035C112.895 33.304 110.711 34.4043 107.527 34.4043H104.002C103.937 31.5592 103.904 29.4792 103.904 28.1641L107.088 28.1445C107.368 28.1445 107.628 28.1901 107.869 28.2812C108.117 28.3724 108.312 28.4668 108.455 28.5645C108.605 28.6556 108.777 28.8346 108.973 29.1016C109.168 29.3685 109.305 29.5638 109.383 29.6875C109.461 29.8047 109.598 30.0521 109.793 30.4297C109.988 30.8073 110.118 31.0514 110.184 31.1621C110.385 31.0775 110.512 30.9896 110.564 30.8984C109.913 29.7917 109.588 28.7728 109.588 27.8418C109.588 27.4382 109.679 26.9466 109.861 26.3672C110.05 25.7878 110.285 25.2572 110.564 24.7754C110.512 24.6842 110.385 24.5996 110.184 24.5215C110.132 24.6126 110.027 24.8079 109.871 25.1074C109.721 25.4069 109.62 25.6022 109.568 25.6934C109.523 25.778 109.428 25.9375 109.285 26.1719C109.148 26.4062 109.041 26.5625 108.963 26.6406C108.885 26.7188 108.768 26.8359 108.611 26.9922C108.462 27.1419 108.315 27.2461 108.172 27.3047C108.035 27.3568 107.872 27.4056 107.684 27.4512C107.495 27.4967 107.296 27.5195 107.088 27.5195C105.688 27.5195 104.627 27.5065 103.904 27.4805C103.904 25.9049 103.943 23.8509 104.021 21.3184H107.127C110.311 21.3184 112.495 22.4186 113.68 24.6191C113.855 24.554 113.969 24.4661 114.021 24.3555C113.37 23.0273 112.641 22.0898 111.834 21.543C111.027 20.9961 109.822 20.7227 108.221 20.7227ZM109.568 24.8438L109.988 24.0234C110.535 24.2188 110.88 24.4694 111.023 24.7754C110.73 25.2832 110.483 25.8333 110.281 26.4258C110.086 27.0117 109.988 27.4837 109.988 27.8418C109.988 28.7077 110.333 29.7266 111.023 30.8984C110.867 31.2305 110.535 31.4844 110.027 31.6602C109.786 31.263 109.611 30.957 109.5 30.7422C109.233 30.2995 109.021 29.9707 108.865 29.7559C108.715 29.5345 108.488 29.3132 108.182 29.0918C107.876 28.8704 107.537 28.7533 107.166 28.7402H105.408C105.408 30.179 105.434 31.9336 105.486 34.0039H107.508C109.161 34.0039 110.506 33.6816 111.541 33.0371C112.583 32.3861 113.37 31.5723 113.904 30.5957C114.451 30.7975 114.796 31.0514 114.939 31.3574C114.087 32.7702 113.582 34.1178 113.426 35.4004H105.32C102.749 35.4004 100.838 35.4199 99.5879 35.459C99.4512 35.0358 99.4447 34.6224 99.5684 34.2188C100.994 34.0755 101.714 33.8835 101.727 33.6426C101.805 31.5983 101.844 29.5508 101.844 27.5C101.844 25.4036 101.811 23.5905 101.746 22.0605C101.733 21.8197 101.007 21.6276 99.5684 21.4844C99.4447 21.0286 99.4577 20.6087 99.6074 20.2246C101.606 20.2897 102.931 20.3223 103.582 20.3223H113.025C113.182 21.5983 113.689 22.9427 114.549 24.3555C114.399 24.668 114.051 24.9219 113.504 25.1172C112.97 24.1471 112.182 23.3398 111.141 22.6953C110.105 22.0443 108.761 21.7188 107.107 21.7188H105.506C105.441 24.056 105.408 25.8496 105.408 27.0996C105.818 27.1126 106.411 27.1191 107.186 27.1191C107.732 27.1191 108.169 26.9368 108.494 26.5723C108.82 26.2012 109.178 25.625 109.568 24.8438ZM120.682 26.9043L120.799 21.3379C121.346 21.2988 121.759 21.2793 122.039 21.2793C122.964 21.2793 123.699 21.4876 124.246 21.9043C124.793 22.3145 125.066 22.9655 125.066 23.8574C125.066 25.8887 123.605 26.9043 120.682 26.9043ZM120.779 34.3359L120.682 27.5C121.202 27.4609 121.71 27.4414 122.205 27.4414C123.605 27.4414 124.718 27.6986 125.545 28.2129C126.372 28.7272 126.785 29.5378 126.785 30.6445C126.785 31.2956 126.665 31.8555 126.424 32.3242C126.183 32.7865 125.88 33.1445 125.516 33.3984C125.158 33.6523 124.692 33.8542 124.119 34.0039C123.546 34.1471 123.012 34.2383 122.518 34.2773C122.029 34.3164 121.45 34.3359 120.779 34.3359ZM122.283 33.916C122.869 33.877 123.383 33.8086 123.826 33.7109C124.275 33.6133 124.702 33.4505 125.105 33.2227C125.516 32.9948 125.831 32.666 126.053 32.2363C126.274 31.8001 126.385 31.2695 126.385 30.6445C126.385 29.974 126.157 29.4108 125.701 28.9551C125.245 28.4928 124.708 28.1803 124.09 28.0176C123.471 27.8483 122.837 27.7962 122.186 27.8613L122.283 33.916ZM122.283 21.6992L122.205 26.4355C123.846 26.1882 124.666 25.3288 124.666 23.8574C124.666 22.5098 123.872 21.7904 122.283 21.6992ZM116.639 35.0586C117.908 35.0195 119.422 35 121.18 35C121.766 35 122.293 34.987 122.762 34.9609C123.23 34.9349 123.79 34.8796 124.441 34.7949C125.092 34.7038 125.662 34.5573 126.15 34.3555C126.639 34.1471 127.107 33.89 127.557 33.584C128.012 33.2715 128.361 32.8646 128.602 32.3633C128.842 31.8555 128.963 31.2663 128.963 30.5957C128.963 29.5736 128.562 28.737 127.762 28.0859C126.961 27.4284 125.975 27.0052 124.803 26.8164V26.7383C125.564 26.4974 126.176 26.1393 126.639 25.6641C127.107 25.1823 127.342 24.5801 127.342 23.8574C127.342 21.7155 125.714 20.6445 122.459 20.6445C122.205 20.6445 121.779 20.6576 121.18 20.6836C120.581 20.7096 119.917 20.7227 119.188 20.7227C118.465 20.7227 117.622 20.6966 116.658 20.6445C116.606 20.7617 116.606 20.9147 116.658 21.1035C118.156 21.2467 118.911 21.5592 118.924 22.041C118.989 23.571 119.021 25.3906 119.021 27.5C119.021 29.5638 118.982 31.6178 118.904 33.6621C118.891 34.1439 118.136 34.4564 116.639 34.5996C116.587 34.7038 116.587 34.8568 116.639 35.0586ZM116.385 20.2246C117.329 20.2637 118.221 20.2832 119.061 20.2832C119.9 20.2832 120.721 20.2767 121.521 20.2637C122.322 20.2507 122.869 20.2441 123.162 20.2441C123.709 20.2441 124.204 20.2637 124.646 20.3027C125.096 20.3418 125.594 20.4362 126.141 20.5859C126.688 20.7292 127.146 20.9245 127.518 21.1719C127.895 21.4193 128.211 21.7741 128.465 22.2363C128.719 22.6921 128.846 23.2324 128.846 23.8574C128.846 25.0163 128.204 25.9505 126.922 26.6602C127.977 26.9661 128.829 27.4577 129.48 28.1348C130.138 28.8053 130.467 29.6257 130.467 30.5957C130.467 31.2272 130.359 31.7936 130.145 32.2949C129.93 32.7897 129.656 33.2031 129.324 33.5352C128.992 33.8607 128.569 34.1439 128.055 34.3848C127.54 34.6191 127.046 34.8014 126.57 34.9316C126.095 35.0553 125.548 35.153 124.93 35.2246C124.311 35.3027 123.781 35.3516 123.338 35.3711C122.902 35.3906 122.417 35.4004 121.883 35.4004C120.333 35.4004 118.494 35.4264 116.365 35.4785C116.202 35.0293 116.202 34.6094 116.365 34.2188C117.778 34.0755 118.491 33.8835 118.504 33.6426C118.582 31.5983 118.621 29.5508 118.621 27.5C118.621 25.4036 118.589 23.5905 118.523 22.0605C118.51 21.8197 117.785 21.6276 116.346 21.4844C116.235 21.0677 116.248 20.6478 116.385 20.2246ZM137.752 19.9219C138.683 19.9219 139.539 20.0521 140.32 20.3125C141.102 20.5729 141.805 20.7422 142.43 20.8203C142.085 22.0312 142.072 23.3366 142.391 24.7363C142.059 25.0163 141.678 25.179 141.248 25.2246C141.196 25.1009 141.102 24.8438 140.965 24.4531C140.835 24.056 140.708 23.7305 140.584 23.4766C140.467 23.2227 140.301 22.9329 140.086 22.6074C139.878 22.2819 139.598 22.0247 139.246 21.8359C138.901 21.6406 138.504 21.5072 138.055 21.4355C137.397 21.4941 136.889 21.696 136.531 22.041C136.173 22.3861 135.994 22.832 135.994 23.3789C135.994 23.9388 136.137 24.401 136.424 24.7656C136.71 25.1237 137.081 25.3939 137.537 25.5762C137.999 25.752 138.507 25.9082 139.061 26.0449C139.614 26.1751 140.164 26.3379 140.711 26.5332C141.258 26.722 141.759 26.9727 142.215 27.2852C142.677 27.5911 143.051 28.0501 143.338 28.6621C143.624 29.2741 143.768 30.0195 143.768 30.8984C143.768 31.9661 143.458 32.8841 142.84 33.6523C142.221 34.4206 141.492 34.9707 140.652 35.3027C139.812 35.6348 138.953 35.8008 138.074 35.8008C136.141 35.8008 134.227 35.3743 132.332 34.5215C132.371 33.6816 132.391 33.1673 132.391 32.9785C132.391 31.9238 132.29 30.791 132.088 29.5801C132.674 29.3001 133.328 29.2871 134.051 29.541C134.292 31.0189 134.757 32.1517 135.447 32.9395C136.144 33.7272 136.906 34.1667 137.732 34.2578C138.507 34.2057 139.103 33.9551 139.52 33.5059C139.943 33.0501 140.154 32.474 140.154 31.7773C140.154 31.1914 140.018 30.6966 139.744 30.293C139.471 29.8828 139.109 29.5671 138.66 29.3457C138.211 29.1178 137.723 28.9128 137.195 28.7305C136.674 28.5482 136.147 28.3561 135.613 28.1543C135.079 27.946 134.588 27.6986 134.139 27.4121C133.696 27.1257 133.338 26.7253 133.064 26.2109C132.791 25.6966 132.654 25.0716 132.654 24.3359C132.654 23.6719 132.758 23.0762 132.967 22.5488C133.182 22.0215 133.458 21.5983 133.797 21.2793C134.142 20.9603 134.542 20.6934 134.998 20.4785C135.46 20.2637 135.916 20.1172 136.365 20.0391C136.821 19.9609 137.283 19.9219 137.752 19.9219ZM137.752 20.3223C137.205 20.3223 136.674 20.3874 136.16 20.5176C135.646 20.6413 135.145 20.8464 134.656 21.1328C134.174 21.4193 133.787 21.8392 133.494 22.3926C133.201 22.946 133.055 23.5938 133.055 24.3359C133.055 24.9935 133.191 25.5599 133.465 26.0352C133.738 26.5039 134.096 26.8685 134.539 27.1289C134.988 27.3893 135.48 27.6204 136.014 27.8223C136.548 28.0176 137.075 28.2161 137.596 28.418C138.123 28.6198 138.611 28.8477 139.061 29.1016C139.51 29.3555 139.871 29.7103 140.145 30.166C140.418 30.6152 140.555 31.1523 140.555 31.7773C140.555 32.6432 140.278 33.3431 139.725 33.877C139.171 34.4108 138.387 34.6777 137.371 34.6777C136.395 34.6777 135.486 34.2708 134.646 33.457C133.807 32.6432 133.253 31.4258 132.986 29.8047C132.856 29.7201 132.703 29.7201 132.527 29.8047C132.703 30.8268 132.791 31.8848 132.791 32.9785C132.791 33.2845 132.778 33.7174 132.752 34.2773C134.367 35.026 135.906 35.4004 137.371 35.4004C138.582 35.4004 139.702 35.0423 140.73 34.3262C141.759 33.6035 142.273 32.5944 142.273 31.2988C142.273 30.5632 142.13 29.9414 141.844 29.4336C141.557 28.9193 141.183 28.5189 140.721 28.2324C140.258 27.946 139.751 27.6986 139.197 27.4902C138.644 27.2819 138.094 27.0866 137.547 26.9043C137 26.7155 136.495 26.5072 136.033 26.2793C135.577 26.0514 135.206 25.7292 134.92 25.3125C134.633 24.8893 134.49 24.3783 134.49 23.7793C134.49 22.9395 134.773 22.2689 135.34 21.7676C135.906 21.2663 136.71 21.0156 137.752 21.0156C139.562 21.0156 140.809 22.2689 141.492 24.7754C141.694 24.8079 141.834 24.7624 141.912 24.6387C141.697 23.0501 141.225 21.9336 140.496 21.2891C139.773 20.6445 138.859 20.3223 137.752 20.3223ZM149.881 33.6621C149.829 30.9408 149.803 28.8867 149.803 27.5C149.803 25.8984 149.835 24.0788 149.9 22.041C149.913 21.5462 151.001 21.2337 153.162 21.1035C153.201 20.9798 153.201 20.8268 153.162 20.6445C151.456 20.6966 150.125 20.7227 149.168 20.7227C148.367 20.7227 147.231 20.6966 145.76 20.6445C145.708 20.7617 145.708 20.9147 145.76 21.1035C147.257 21.2467 148.012 21.5592 148.025 22.041C148.09 23.571 148.123 25.3906 148.123 27.5C148.123 29.5638 148.084 31.6178 148.006 33.6621C147.993 34.1439 147.238 34.4564 145.74 34.5996C145.688 34.7038 145.688 34.8568 145.74 35.0586C146.847 35.0195 147.983 35 149.148 35C150.535 35 151.867 35.0195 153.143 35.0586C153.195 34.9544 153.195 34.8014 153.143 34.5996C150.981 34.4694 149.894 34.1569 149.881 33.6621ZM145.447 21.4844C145.337 21.0547 145.35 20.6348 145.486 20.2246C146.059 20.2246 146.834 20.2409 147.811 20.2734C148.794 20.306 149.477 20.3223 149.861 20.3223C150.141 20.3223 150.682 20.3158 151.482 20.3027C152.283 20.2897 152.977 20.2832 153.562 20.2832C153.686 20.6543 153.693 21.0547 153.582 21.4844C152.143 21.6276 151.417 21.8197 151.404 22.0605C151.326 23.6882 151.287 25.7422 151.287 28.2227C151.287 30.6185 151.32 32.4251 151.385 33.6426C151.385 33.6816 151.401 33.7207 151.434 33.7598C151.466 33.7988 151.512 33.8314 151.57 33.8574C151.635 33.8835 151.701 33.9128 151.766 33.9453C151.831 33.9714 151.919 33.9974 152.029 34.0234C152.146 34.0495 152.244 34.0723 152.322 34.0918C152.4 34.1113 152.505 34.1309 152.635 34.1504C152.771 34.1699 152.879 34.1862 152.957 34.1992C153.042 34.2122 153.152 34.2253 153.289 34.2383C153.432 34.2513 153.53 34.2643 153.582 34.2773C153.693 34.6419 153.673 35.0423 153.523 35.4785C151.121 35.4264 149.663 35.4004 149.148 35.4004C148.797 35.4004 147.57 35.4264 145.467 35.4785C145.304 35.0293 145.304 34.6094 145.467 34.2188C146.88 34.0755 147.592 33.8835 147.605 33.6426C147.684 32.015 147.723 29.9674 147.723 27.5C147.723 25.4036 147.69 23.5905 147.625 22.0605C147.612 21.8197 146.886 21.6276 145.447 21.4844ZM154.881 25.1172C154.386 24.9219 154.061 24.668 153.904 24.3555C154.275 23.6523 154.523 23.1803 154.646 22.9395C154.777 22.6986 154.923 22.3307 155.086 21.8359C155.255 21.3346 155.372 20.8301 155.438 20.3223H162.205H170.34C170.503 21.5983 171.01 22.9427 171.863 24.3555C171.714 24.668 171.365 24.9219 170.818 25.1172C170.285 24.1471 169.497 23.3398 168.455 22.6953C167.42 22.0443 166.076 21.7188 164.422 21.7188C164.37 23.3333 164.344 25.2474 164.344 27.4609C164.344 30.2865 164.376 32.347 164.441 33.6426C164.454 33.8835 165.18 34.0755 166.619 34.2188C166.73 34.6354 166.717 35.0553 166.58 35.4785C164.471 35.4264 163.243 35.4004 162.898 35.4004C162.378 35.4004 160.919 35.4264 158.523 35.4785C158.361 35.0293 158.361 34.6094 158.523 34.2188C159.936 34.0755 160.649 33.89 160.662 33.6621C160.727 32.0215 160.76 29.9544 160.76 27.4609C160.76 25.3776 160.734 23.4831 160.682 21.7773C157.973 22.1289 156.04 23.2422 154.881 25.1172ZM157.645 21.377L161.062 21.2793C161.128 23.4408 161.16 25.5013 161.16 27.4609C161.16 29.9805 161.128 32.0475 161.062 33.6621C161.049 34.1439 160.294 34.4564 158.797 34.5996C158.745 34.7038 158.745 34.8568 158.797 35.0586C159.904 35.0195 161.04 35 162.205 35C163.592 35 164.923 35.0195 166.199 35.0586C166.251 34.9414 166.251 34.7884 166.199 34.5996C164.038 34.4694 162.951 34.1569 162.938 33.6621C162.872 31.5007 162.84 29.4336 162.84 27.4609C162.84 24.9544 162.872 22.8939 162.938 21.2793L164.441 21.3184C167.684 21.3965 169.871 22.4967 171.004 24.6191C171.173 24.554 171.284 24.4661 171.336 24.3555C170.685 23.0273 169.956 22.0898 169.148 21.543C168.341 20.9961 167.14 20.7227 165.545 20.7227H162.205C161.495 20.7227 160.424 20.7194 158.992 20.7129C157.56 20.7064 156.495 20.7031 155.799 20.7031C155.773 20.9245 155.727 21.1556 155.662 21.3965C155.597 21.6374 155.535 21.8424 155.477 22.0117C155.424 22.1745 155.333 22.3926 155.203 22.666C155.079 22.9395 154.995 23.125 154.949 23.2227C154.904 23.3138 154.799 23.5156 154.637 23.8281C154.48 24.1406 154.389 24.3164 154.363 24.3555C154.415 24.4661 154.529 24.554 154.705 24.6191C155.167 23.8574 155.525 23.2943 155.779 22.9297C156.033 22.5651 156.333 22.2168 156.678 21.8848C157.029 21.5462 157.352 21.377 157.645 21.377ZM180.35 20.7227H175.438C174.624 20.7227 173.481 20.6966 172.01 20.6445V21.1035C173.507 21.2467 174.262 21.5592 174.275 22.041C174.34 23.571 174.373 25.3906 174.373 27.5C174.373 29.5638 174.334 31.6178 174.256 33.6621C174.243 34.1439 173.488 34.4564 171.99 34.5996C171.964 34.8275 171.964 34.9805 171.99 35.0586C173.247 35.0195 176.167 35 180.75 35C182.352 35 183.556 34.7266 184.363 34.1797C185.171 33.6328 185.9 32.6921 186.551 31.3574C186.499 31.2533 186.385 31.1686 186.209 31.1035C185.024 33.304 182.84 34.4043 179.656 34.4043H176.131C176.066 31.5592 176.033 29.4792 176.033 28.1641L179.217 28.1445C179.497 28.1445 179.757 28.1901 179.998 28.2812C180.245 28.3724 180.441 28.4668 180.584 28.5645C180.734 28.6556 180.906 28.8346 181.102 29.1016C181.297 29.3685 181.434 29.5638 181.512 29.6875C181.59 29.8047 181.727 30.0521 181.922 30.4297C182.117 30.8073 182.247 31.0514 182.312 31.1621C182.514 31.0775 182.641 30.9896 182.693 30.8984C182.042 29.7917 181.717 28.7728 181.717 27.8418C181.717 27.4382 181.808 26.9466 181.99 26.3672C182.179 25.7878 182.413 25.2572 182.693 24.7754C182.641 24.6842 182.514 24.5996 182.312 24.5215C182.26 24.6126 182.156 24.8079 182 25.1074C181.85 25.4069 181.749 25.6022 181.697 25.6934C181.652 25.778 181.557 25.9375 181.414 26.1719C181.277 26.4062 181.17 26.5625 181.092 26.6406C181.014 26.7188 180.896 26.8359 180.74 26.9922C180.59 27.1419 180.444 27.2461 180.301 27.3047C180.164 27.3568 180.001 27.4056 179.812 27.4512C179.624 27.4967 179.425 27.5195 179.217 27.5195C177.817 27.5195 176.756 27.5065 176.033 27.4805C176.033 25.9049 176.072 23.8509 176.15 21.3184H179.256C182.439 21.3184 184.624 22.4186 185.809 24.6191C185.984 24.554 186.098 24.4661 186.15 24.3555C185.499 23.0273 184.77 22.0898 183.963 21.543C183.156 20.9961 181.951 20.7227 180.35 20.7227ZM181.697 24.8438L182.117 24.0234C182.664 24.2188 183.009 24.4694 183.152 24.7754C182.859 25.2832 182.612 25.8333 182.41 26.4258C182.215 27.0117 182.117 27.4837 182.117 27.8418C182.117 28.7077 182.462 29.7266 183.152 30.8984C182.996 31.2305 182.664 31.4844 182.156 31.6602C181.915 31.263 181.74 30.957 181.629 30.7422C181.362 30.2995 181.15 29.9707 180.994 29.7559C180.844 29.5345 180.617 29.3132 180.311 29.0918C180.005 28.8704 179.666 28.7533 179.295 28.7402H177.537C177.537 30.179 177.563 31.9336 177.615 34.0039H179.637C181.29 34.0039 182.635 33.6816 183.67 33.0371C184.712 32.3861 185.499 31.5723 186.033 30.5957C186.58 30.7975 186.925 31.0514 187.068 31.3574C186.215 32.7702 185.711 34.1178 185.555 35.4004H177.449C174.878 35.4004 172.967 35.4199 171.717 35.459C171.58 35.0358 171.574 34.6224 171.697 34.2188C173.123 34.0755 173.842 33.8835 173.855 33.6426C173.934 31.5983 173.973 29.5508 173.973 27.5C173.973 25.4036 173.94 23.5905 173.875 22.0605C173.862 21.8197 173.136 21.6276 171.697 21.4844C171.574 21.0286 171.587 20.6087 171.736 20.2246C173.735 20.2897 175.06 20.3223 175.711 20.3223H185.154C185.311 21.5983 185.818 22.9427 186.678 24.3555C186.528 24.668 186.18 24.9219 185.633 25.1172C185.099 24.1471 184.311 23.3398 183.27 22.6953C182.234 22.0443 180.89 21.7188 179.236 21.7188H177.635C177.57 24.056 177.537 25.8496 177.537 27.0996C177.947 27.1126 178.54 27.1191 179.314 27.1191C179.861 27.1191 180.298 26.9368 180.623 26.5723C180.949 26.2012 181.307 25.625 181.697 24.8438ZM202.186 21.4355C201.684 21.4746 201.235 21.5951 200.838 21.7969C200.441 21.9987 200.092 22.2624 199.793 22.5879C199.493 22.9069 199.236 23.2747 199.021 23.6914C198.813 24.1016 198.641 24.5378 198.504 25C198.374 25.4622 198.276 25.9408 198.211 26.4355C198.152 26.9238 198.123 27.4056 198.123 27.8809C198.123 28.3561 198.152 28.8411 198.211 29.3359C198.276 29.8242 198.377 30.2995 198.514 30.7617C198.65 31.224 198.823 31.6602 199.031 32.0703C199.246 32.4805 199.503 32.8451 199.803 33.1641C200.109 33.4766 200.457 33.7305 200.848 33.9258C201.245 34.1211 201.691 34.2383 202.186 34.2773C202.693 34.2383 203.146 34.1211 203.543 33.9258C203.94 33.724 204.288 33.4668 204.588 33.1543C204.894 32.8353 205.151 32.4707 205.359 32.0605C205.574 31.6439 205.747 31.2077 205.877 30.752C206.014 30.2897 206.111 29.8145 206.17 29.3262C206.235 28.8314 206.268 28.3496 206.268 27.8809C206.268 27.4056 206.235 26.9238 206.17 26.4355C206.111 25.9408 206.014 25.4622 205.877 25C205.747 24.5312 205.574 24.0918 205.359 23.6816C205.151 23.265 204.894 22.8971 204.588 22.5781C204.288 22.2591 203.937 21.9987 203.533 21.7969C203.136 21.5951 202.687 21.4746 202.186 21.4355ZM201.844 34.6973C201.199 34.6973 200.623 34.6029 200.115 34.4141C199.607 34.2188 199.158 33.9583 198.768 33.6328C198.383 33.3008 198.055 32.9134 197.781 32.4707C197.514 32.028 197.293 31.556 197.117 31.0547C196.948 30.5469 196.824 30.0228 196.746 29.4824C196.668 28.9355 196.629 28.4017 196.629 27.8809C196.629 27.36 196.668 26.8294 196.746 26.2891C196.824 25.7422 196.948 25.2148 197.117 24.707C197.286 24.1992 197.508 23.7207 197.781 23.2715C198.055 22.8223 198.383 22.4316 198.768 22.0996C199.152 21.7676 199.598 21.5039 200.105 21.3086C200.62 21.1133 201.199 21.0156 201.844 21.0156C202.436 21.0156 202.967 21.1133 203.436 21.3086C203.904 21.4974 204.314 21.7611 204.666 22.0996C205.024 22.4316 205.33 22.8223 205.584 23.2715C205.838 23.7207 206.043 24.1992 206.199 24.707C206.362 25.2148 206.479 25.7422 206.551 26.2891C206.629 26.8294 206.668 27.36 206.668 27.8809C206.668 28.4017 206.632 28.9323 206.561 29.4727C206.489 30.0065 206.372 30.5273 206.209 31.0352C206.053 31.5365 205.848 32.0117 205.594 32.4609C205.346 32.9036 205.044 33.291 204.686 33.623C204.327 33.9551 203.914 34.2188 203.445 34.4141C202.977 34.6029 202.443 34.6973 201.844 34.6973ZM201.844 35.4004C202.293 35.4004 202.778 35.3548 203.299 35.2637C203.82 35.1725 204.337 35.0163 204.852 34.7949C205.372 34.5736 205.874 34.2773 206.355 33.9062C206.837 33.5352 207.26 33.0729 207.625 32.5195C207.996 31.9596 208.292 31.2988 208.514 30.5371C208.735 29.7689 208.846 28.8835 208.846 27.8809C208.846 26.8978 208.735 26.0286 208.514 25.2734C208.299 24.5117 208.009 23.8509 207.645 23.291C207.28 22.7311 206.86 22.2624 206.385 21.8848C205.91 21.5072 205.411 21.2044 204.891 20.9766C204.37 20.7422 203.846 20.5762 203.318 20.4785C202.798 20.3743 202.306 20.3223 201.844 20.3223C201.395 20.3223 200.9 20.3678 200.359 20.459C199.819 20.5436 199.275 20.6966 198.729 20.918C198.182 21.1328 197.651 21.4258 197.137 21.7969C196.622 22.168 196.167 22.6335 195.77 23.1934C195.372 23.7533 195.053 24.4206 194.812 25.1953C194.572 25.9635 194.451 26.8587 194.451 27.8809C194.451 28.8704 194.565 29.7428 194.793 30.498C195.027 31.2533 195.337 31.9108 195.721 32.4707C196.105 33.0241 196.548 33.4896 197.049 33.8672C197.557 34.2383 198.084 34.5378 198.631 34.7656C199.178 34.9935 199.728 35.1562 200.281 35.2539C200.835 35.3516 201.355 35.4004 201.844 35.4004ZM202.186 35.8398C200.877 35.8398 199.718 35.6478 198.709 35.2637C197.7 34.8861 196.85 34.3522 196.16 33.6621C195.47 32.9655 194.946 32.1289 194.588 31.1523C194.23 30.1693 194.051 29.0788 194.051 27.8809C194.051 26.6829 194.23 25.5957 194.588 24.6191C194.946 23.6361 195.47 22.7995 196.16 22.1094C196.85 21.4128 197.7 20.8757 198.709 20.498C199.718 20.1139 200.877 19.9219 202.186 19.9219C203.416 19.9219 204.533 20.0977 205.535 20.4492C206.544 20.8008 207.404 21.3151 208.113 21.9922C208.829 22.6628 209.38 23.4928 209.764 24.4824C210.154 25.472 210.35 26.6048 210.35 27.8809C210.35 29.1634 210.154 30.2995 209.764 31.2891C209.38 32.2721 208.829 33.1022 208.113 33.7793C207.404 34.4564 206.544 34.9674 205.535 35.3125C204.533 35.6641 203.416 35.8398 202.186 35.8398ZM219.305 28.7402H217.947C217.947 30.2897 217.98 31.9303 218.045 33.6621C218.045 33.7012 218.061 33.737 218.094 33.7695C218.126 33.8021 218.172 33.8346 218.23 33.8672C218.296 33.8997 218.403 33.9421 218.553 33.9941C218.702 34.0462 219.005 34.1048 219.461 34.1699C219.917 34.2285 220.177 34.2643 220.242 34.2773C220.353 34.6419 220.333 35.0423 220.184 35.4785C217.781 35.4264 216.323 35.4004 215.809 35.4004C215.457 35.4004 214.23 35.4264 212.127 35.4785C211.964 35.0293 211.964 34.6094 212.127 34.2188C213.54 34.0755 214.253 33.8835 214.266 33.6426C214.344 32.015 214.383 29.9674 214.383 27.5C214.383 25.4036 214.35 23.5905 214.285 22.0605C214.272 21.8197 213.546 21.6276 212.107 21.4844C211.984 21.0286 211.997 20.6087 212.146 20.2246C214.145 20.2897 215.47 20.3223 216.121 20.3223H225.164C225.327 21.5983 225.835 22.9427 226.688 24.3555C226.538 24.668 226.189 24.9219 225.643 25.1172C225.109 24.1471 224.321 23.3398 223.279 22.6953C222.244 22.0443 220.9 21.7188 219.246 21.7188H218.045C217.98 24.056 217.947 25.8496 217.947 27.0996C218.266 27.1126 218.725 27.1191 219.324 27.1191C219.871 27.1191 220.307 26.9368 220.633 26.5723C220.958 26.2012 221.316 25.625 221.707 24.8438L222.127 24.0234C222.674 24.2188 223.019 24.4694 223.162 24.7754C222.472 26.0189 222.127 27.041 222.127 27.8418C222.127 28.7077 222.472 29.7266 223.162 30.8984C223.006 31.2305 222.674 31.4844 222.166 31.6602C222.016 31.4583 221.844 31.1523 221.648 30.7422C221.382 30.2995 221.17 29.9707 221.014 29.7559C220.857 29.5345 220.626 29.3132 220.32 29.0918C220.014 28.8704 219.676 28.7533 219.305 28.7402ZM216.443 28.1641L219.227 28.1445C219.507 28.1445 219.77 28.1901 220.018 28.2812C220.265 28.3724 220.46 28.4668 220.604 28.5645C220.753 28.6556 220.923 28.8346 221.111 29.1016C221.307 29.3685 221.443 29.5638 221.521 29.6875C221.606 29.8047 221.743 30.0521 221.932 30.4297C222.127 30.8073 222.257 31.0514 222.322 31.1621C222.524 31.0775 222.651 30.9896 222.703 30.8984C222.052 29.7396 221.727 28.7207 221.727 27.8418C221.727 27.4382 221.818 26.9466 222 26.3672C222.189 25.7878 222.423 25.2572 222.703 24.7754C222.677 24.6842 222.55 24.5996 222.322 24.5215C222.27 24.6126 222.166 24.8079 222.01 25.1074C221.86 25.4069 221.762 25.6022 221.717 25.6934C221.671 25.778 221.577 25.9375 221.434 26.1719C221.297 26.4062 221.186 26.5625 221.102 26.6406C221.023 26.7188 220.906 26.8359 220.75 26.9922C220.6 27.1419 220.454 27.2461 220.311 27.3047C220.174 27.3568 220.011 27.4056 219.822 27.4512C219.633 27.4967 219.435 27.5195 219.227 27.5195C218.009 27.5195 217.081 27.5065 216.443 27.4805C216.443 25.9049 216.482 23.8509 216.561 21.3184H219.266C222.449 21.3184 224.637 22.4186 225.828 24.6191C225.997 24.554 226.108 24.4661 226.16 24.3555C225.509 23.0273 224.78 22.0898 223.973 21.543C223.165 20.9961 221.961 20.7227 220.359 20.7227H215.848C215.034 20.7227 213.891 20.6966 212.42 20.6445V21.1035C213.917 21.2467 214.673 21.5592 214.686 22.041C214.751 23.571 214.783 25.3906 214.783 27.5C214.783 29.5638 214.744 31.6178 214.666 33.6621C214.653 34.1439 213.898 34.4564 212.4 34.5996C212.348 34.7038 212.348 34.8568 212.4 35.0586C213.507 35.0195 214.643 35 215.809 35C217.195 35 218.527 35.0195 219.803 35.0586C219.855 34.9544 219.855 34.8014 219.803 34.5996C217.654 34.4694 216.567 34.1569 216.541 33.6621C216.476 32.1257 216.443 30.293 216.443 28.1641ZM80.3984 47.3184C80.9323 47.2923 81.3132 47.2793 81.541 47.2793C83.9173 47.2793 85.1055 48.4805 85.1055 50.8828C85.1055 51.918 84.8743 52.735 84.4121 53.334C83.9499 53.9264 83.2598 54.2227 82.3418 54.2227C81.6517 54.2227 80.9844 54.1022 80.3398 53.8613C80.3398 51.8496 80.3594 49.6686 80.3984 47.3184ZM78.084 59.6426C78.1621 58.015 78.2012 55.9674 78.2012 53.5C78.2012 51.4036 78.1686 49.5905 78.1035 48.0605C78.0905 47.8197 77.3646 47.6276 75.9258 47.4844C75.8151 47.0547 75.8281 46.6348 75.9648 46.2246C76.6549 46.2507 77.3971 46.2669 78.1914 46.2734C78.9857 46.2799 79.8971 46.2767 80.9258 46.2637C81.9609 46.2507 82.7194 46.2441 83.2012 46.2441C85.0046 46.2441 86.3783 46.6673 87.3223 47.5137C88.2663 48.36 88.7383 49.4896 88.7383 50.9023C88.7383 52.3281 88.2142 53.4447 87.166 54.252C86.1243 55.0592 84.7702 55.4629 83.1035 55.4629C82.6348 55.4629 82.2148 55.4206 81.8438 55.3359C81.8438 57.1784 81.8633 58.6204 81.9023 59.6621C81.9023 59.7012 81.9479 59.7533 82.0391 59.8184C82.1367 59.8835 82.2767 59.9453 82.459 60.0039C82.6478 60.0625 82.9505 60.1211 83.3672 60.1797C83.7904 60.2318 84.0345 60.2643 84.0996 60.2773C84.2103 60.6419 84.1908 61.0423 84.041 61.4785C81.6387 61.4264 80.1803 61.4004 79.666 61.4004C79.2884 61.4004 78.0482 61.4264 75.9453 61.4785C75.7826 61.0293 75.7826 60.6094 75.9453 60.2188C77.3581 60.0755 78.071 59.8835 78.084 59.6426ZM84.7051 50.8828C84.7051 48.8646 83.7643 47.8034 81.8828 47.6992C81.8568 49.138 81.8438 51.1107 81.8438 53.6172C82.0846 53.7279 82.3451 53.7962 82.625 53.8223C83.3021 53.7572 83.8164 53.4642 84.168 52.9434C84.526 52.4225 84.7051 51.7357 84.7051 50.8828ZM78.4844 59.6621C78.4714 60.1439 77.7161 60.4564 76.2188 60.5996C76.1667 60.7038 76.1667 60.8568 76.2188 61.0586C77.3255 61.0195 78.4746 61 79.666 61C81.0527 61 82.3841 61.0195 83.6602 61.0586C83.7122 60.9544 83.7122 60.8014 83.6602 60.5996C81.4987 60.4694 80.4115 60.1569 80.3984 59.6621C80.3594 57.8197 80.3398 56.1042 80.3398 54.5156C81.1536 54.8802 82.0749 55.0625 83.1035 55.0625C84.4251 55.0625 85.444 54.6751 86.1602 53.9004C86.8828 53.1257 87.2441 52.1263 87.2441 50.9023C87.2441 49.6198 86.8372 48.5911 86.0234 47.8164C85.2096 47.0352 84.0345 46.6445 82.498 46.6445C82.0228 46.6445 81.3555 46.6543 80.4961 46.6738C79.6367 46.6934 78.8652 46.7031 78.1816 46.7031C77.5046 46.7031 76.8568 46.6836 76.2383 46.6445C76.1862 46.7617 76.1862 46.9147 76.2383 47.1035C76.5312 47.1296 76.7721 47.1556 76.9609 47.1816C77.1497 47.2077 77.3809 47.2533 77.6543 47.3184C77.9277 47.3835 78.1328 47.4779 78.2695 47.6016C78.4128 47.7188 78.4909 47.8652 78.5039 48.041C78.569 49.571 78.6016 51.3906 78.6016 53.5C78.6016 55.5638 78.5625 57.6178 78.4844 59.6621ZM94.2266 47.3184H94.2461C94.6497 47.2923 95.1706 47.2793 95.8086 47.2793C96.7982 47.2793 97.5534 47.5853 98.0742 48.1973C98.6016 48.8092 98.8652 49.6035 98.8652 50.5801C98.8652 51.5697 98.6243 52.429 98.1426 53.1582C97.6673 53.8809 96.9219 54.2422 95.9062 54.2422C95.3073 54.2422 94.7148 54.1673 94.1289 54.0176C94.1289 51.7259 94.1615 49.4928 94.2266 47.3184ZM98.4648 50.5801C98.4648 49.7402 98.2109 49.0339 97.7031 48.4609C97.2018 47.888 96.5378 47.6341 95.7109 47.6992C95.6589 50.2057 95.6328 52.2142 95.6328 53.7246C95.763 53.7637 95.9616 53.7962 96.2285 53.8223C96.9902 53.7376 97.5534 53.3796 97.918 52.748C98.2826 52.1165 98.4648 51.3939 98.4648 50.5801ZM92.3516 59.6621C92.3385 60.1439 91.5833 60.4564 90.0859 60.5996C90.0339 60.7038 90.0339 60.8568 90.0859 61.0586C91.1927 61.0195 92.3288 61 93.4941 61C94.8809 61 96.2122 61.0195 97.4883 61.0586C97.5404 60.9544 97.5404 60.8014 97.4883 60.5996C95.3268 60.4694 94.2396 60.1569 94.2266 59.6621C94.1615 57.8327 94.1289 56.1986 94.1289 54.7598C94.8646 54.9095 95.5449 54.9844 96.1699 54.9844C97.2376 56.9701 98.6439 58.9753 100.389 61C100.721 61 101.199 61.0033 101.824 61.0098C102.456 61.0163 103.022 61.0228 103.523 61.0293C104.031 61.0358 104.513 61.0456 104.969 61.0586C105.021 60.9414 105.021 60.7884 104.969 60.5996C103.901 60.5215 102.999 60.2611 102.264 59.8184C101.535 59.3691 100.682 58.5423 99.7051 57.3379C99.041 56.498 98.4421 55.6126 97.9082 54.6816C98.8717 54.3626 99.6302 53.832 100.184 53.0898C100.737 52.3477 101.014 51.5111 101.014 50.5801C101.014 49.4082 100.636 48.4609 99.8809 47.7383C99.1257 47.0091 98.0807 46.6445 96.7461 46.6445C92.3451 46.6966 90.1315 46.6966 90.1055 46.6445C90.0664 46.8008 90.0664 46.9538 90.1055 47.1035C91.6029 47.2467 92.3581 47.5592 92.3711 48.041C92.4362 49.571 92.4688 51.3906 92.4688 53.5C92.4688 55.5638 92.4297 57.6178 92.3516 59.6621ZM91.9512 59.6426C92.0293 58.015 92.0684 55.9674 92.0684 53.5C92.0684 51.4036 92.0358 49.5905 91.9707 48.0605C91.9577 47.8197 91.2318 47.6276 89.793 47.4844C89.6823 47.0547 89.6953 46.6348 89.832 46.2246C90.5482 46.2637 91.3262 46.2832 92.166 46.2832C93.0059 46.2832 93.9694 46.2767 95.0566 46.2637C96.1439 46.2507 96.9414 46.2441 97.4492 46.2441C99.0247 46.2441 100.262 46.6445 101.16 47.4453C102.059 48.2396 102.508 49.2845 102.508 50.5801C102.508 51.498 102.244 52.3444 101.717 53.1191C101.189 53.8939 100.48 54.4798 99.5879 54.877C100.031 55.5996 100.545 56.3418 101.131 57.1035C101.821 58.0215 102.498 58.7507 103.162 59.291C103.833 59.8314 104.575 60.1406 105.389 60.2188C105.493 60.6354 105.48 61.0553 105.35 61.4785C104.419 61.4525 102.706 61.4264 100.213 61.4004C98.3835 59.265 96.9544 57.2598 95.9258 55.3848H95.6328C95.6328 56.5957 95.6654 58.015 95.7305 59.6426C95.7305 59.6816 95.7467 59.7207 95.7793 59.7598C95.8118 59.7988 95.9388 59.8607 96.1602 59.9453C96.3815 60.0299 96.7168 60.1048 97.166 60.1699C97.6217 60.2285 97.8757 60.2643 97.9277 60.2773C98.0384 60.6419 98.0189 61.0423 97.8691 61.4785C95.4668 61.4264 94.0085 61.4004 93.4941 61.4004C93.1426 61.4004 91.9154 61.4264 89.8125 61.4785C89.6497 61.0293 89.6497 60.6094 89.8125 60.2188C91.2253 60.0755 91.9382 59.8835 91.9512 59.6426ZM114.617 46.7227H109.705C108.891 46.7227 107.749 46.6966 106.277 46.6445V47.1035C107.775 47.2467 108.53 47.5592 108.543 48.041C108.608 49.571 108.641 51.3906 108.641 53.5C108.641 55.5638 108.602 57.6178 108.523 59.6621C108.51 60.1439 107.755 60.4564 106.258 60.5996C106.232 60.8275 106.232 60.9805 106.258 61.0586C107.514 61.0195 110.434 61 115.018 61C116.619 61 117.824 60.7266 118.631 60.1797C119.438 59.6328 120.167 58.6921 120.818 57.3574C120.766 57.2533 120.652 57.1686 120.477 57.1035C119.292 59.304 117.107 60.4043 113.924 60.4043H110.398C110.333 57.5592 110.301 55.4792 110.301 54.1641L113.484 54.1445C113.764 54.1445 114.025 54.1901 114.266 54.2812C114.513 54.3724 114.708 54.4668 114.852 54.5645C115.001 54.6556 115.174 54.8346 115.369 55.1016C115.564 55.3685 115.701 55.5638 115.779 55.6875C115.857 55.8047 115.994 56.0521 116.189 56.4297C116.385 56.8073 116.515 57.0514 116.58 57.1621C116.782 57.0775 116.909 56.9896 116.961 56.8984C116.31 55.7917 115.984 54.7728 115.984 53.8418C115.984 53.4382 116.076 52.9466 116.258 52.3672C116.447 51.7878 116.681 51.2572 116.961 50.7754C116.909 50.6842 116.782 50.5996 116.58 50.5215C116.528 50.6126 116.424 50.8079 116.268 51.1074C116.118 51.4069 116.017 51.6022 115.965 51.6934C115.919 51.778 115.825 51.9375 115.682 52.1719C115.545 52.4062 115.438 52.5625 115.359 52.6406C115.281 52.7188 115.164 52.8359 115.008 52.9922C114.858 53.1419 114.712 53.2461 114.568 53.3047C114.432 53.3568 114.269 53.4056 114.08 53.4512C113.891 53.4967 113.693 53.5195 113.484 53.5195C112.085 53.5195 111.023 53.5065 110.301 53.4805C110.301 51.9049 110.34 49.8509 110.418 47.3184H113.523C116.707 47.3184 118.891 48.4186 120.076 50.6191C120.252 50.554 120.366 50.4661 120.418 50.3555C119.767 49.0273 119.038 48.0898 118.23 47.543C117.423 46.9961 116.219 46.7227 114.617 46.7227ZM115.965 50.8438L116.385 50.0234C116.932 50.2188 117.277 50.4694 117.42 50.7754C117.127 51.2832 116.88 51.8333 116.678 52.4258C116.482 53.0117 116.385 53.4837 116.385 53.8418C116.385 54.7077 116.73 55.7266 117.42 56.8984C117.264 57.2305 116.932 57.4844 116.424 57.6602C116.183 57.263 116.007 56.957 115.896 56.7422C115.63 56.2995 115.418 55.9707 115.262 55.7559C115.112 55.5345 114.884 55.3132 114.578 55.0918C114.272 54.8704 113.934 54.7533 113.562 54.7402H111.805C111.805 56.179 111.831 57.9336 111.883 60.0039H113.904C115.558 60.0039 116.902 59.6816 117.938 59.0371C118.979 58.3861 119.767 57.5723 120.301 56.5957C120.848 56.7975 121.193 57.0514 121.336 57.3574C120.483 58.7702 119.979 60.1178 119.822 61.4004H111.717C109.145 61.4004 107.234 61.4199 105.984 61.459C105.848 61.0358 105.841 60.6224 105.965 60.2188C107.391 60.0755 108.11 59.8835 108.123 59.6426C108.201 57.5983 108.24 55.5508 108.24 53.5C108.24 51.4036 108.208 49.5905 108.143 48.0605C108.13 47.8197 107.404 47.6276 105.965 47.4844C105.841 47.0286 105.854 46.6087 106.004 46.2246C108.003 46.2897 109.327 46.3223 109.979 46.3223H119.422C119.578 47.5983 120.086 48.9427 120.945 50.3555C120.796 50.668 120.447 50.9219 119.9 51.1172C119.367 50.1471 118.579 49.3398 117.537 48.6953C116.502 48.0443 115.158 47.7188 113.504 47.7188H111.902C111.837 50.056 111.805 51.8496 111.805 53.0996C112.215 53.1126 112.807 53.1191 113.582 53.1191C114.129 53.1191 114.565 52.9368 114.891 52.5723C115.216 52.2012 115.574 51.625 115.965 50.8438ZM128.641 45.9219C129.572 45.9219 130.428 46.0521 131.209 46.3125C131.99 46.5729 132.693 46.7422 133.318 46.8203C132.973 48.0312 132.96 49.3366 133.279 50.7363C132.947 51.0163 132.566 51.179 132.137 51.2246C132.085 51.1009 131.99 50.8438 131.854 50.4531C131.723 50.056 131.596 49.7305 131.473 49.4766C131.355 49.2227 131.189 48.9329 130.975 48.6074C130.766 48.2819 130.486 48.0247 130.135 47.8359C129.79 47.6406 129.393 47.5072 128.943 47.4355C128.286 47.4941 127.778 47.696 127.42 48.041C127.062 48.3861 126.883 48.832 126.883 49.3789C126.883 49.9388 127.026 50.401 127.312 50.7656C127.599 51.1237 127.97 51.3939 128.426 51.5762C128.888 51.752 129.396 51.9082 129.949 52.0449C130.503 52.1751 131.053 52.3379 131.6 52.5332C132.146 52.722 132.648 52.9727 133.104 53.2852C133.566 53.5911 133.94 54.0501 134.227 54.6621C134.513 55.2741 134.656 56.0195 134.656 56.8984C134.656 57.9661 134.347 58.8841 133.729 59.6523C133.11 60.4206 132.381 60.9707 131.541 61.3027C130.701 61.6348 129.842 61.8008 128.963 61.8008C127.029 61.8008 125.115 61.3743 123.221 60.5215C123.26 59.6816 123.279 59.1673 123.279 58.9785C123.279 57.9238 123.178 56.791 122.977 55.5801C123.562 55.3001 124.217 55.2871 124.939 55.541C125.18 57.0189 125.646 58.1517 126.336 58.9395C127.033 59.7272 127.794 60.1667 128.621 60.2578C129.396 60.2057 129.992 59.9551 130.408 59.5059C130.831 59.0501 131.043 58.474 131.043 57.7773C131.043 57.1914 130.906 56.6966 130.633 56.293C130.359 55.8828 129.998 55.5671 129.549 55.3457C129.1 55.1178 128.611 54.9128 128.084 54.7305C127.563 54.5482 127.036 54.3561 126.502 54.1543C125.968 53.946 125.477 53.6986 125.027 53.4121C124.585 53.1257 124.227 52.7253 123.953 52.2109C123.68 51.6966 123.543 51.0716 123.543 50.3359C123.543 49.6719 123.647 49.0762 123.855 48.5488C124.07 48.0215 124.347 47.5983 124.686 47.2793C125.031 46.9603 125.431 46.6934 125.887 46.4785C126.349 46.2637 126.805 46.1172 127.254 46.0391C127.71 45.9609 128.172 45.9219 128.641 45.9219ZM128.641 46.3223C128.094 46.3223 127.563 46.3874 127.049 46.5176C126.535 46.6413 126.033 46.8464 125.545 47.1328C125.063 47.4193 124.676 47.8392 124.383 48.3926C124.09 48.946 123.943 49.5938 123.943 50.3359C123.943 50.9935 124.08 51.5599 124.354 52.0352C124.627 52.5039 124.985 52.8685 125.428 53.1289C125.877 53.3893 126.368 53.6204 126.902 53.8223C127.436 54.0176 127.964 54.2161 128.484 54.418C129.012 54.6198 129.5 54.8477 129.949 55.1016C130.398 55.3555 130.76 55.7103 131.033 56.166C131.307 56.6152 131.443 57.1523 131.443 57.7773C131.443 58.6432 131.167 59.3431 130.613 59.877C130.06 60.4108 129.275 60.6777 128.26 60.6777C127.283 60.6777 126.375 60.2708 125.535 59.457C124.695 58.6432 124.142 57.4258 123.875 55.8047C123.745 55.7201 123.592 55.7201 123.416 55.8047C123.592 56.8268 123.68 57.8848 123.68 58.9785C123.68 59.2845 123.667 59.7174 123.641 60.2773C125.255 61.026 126.795 61.4004 128.26 61.4004C129.471 61.4004 130.59 61.0423 131.619 60.3262C132.648 59.6035 133.162 58.5944 133.162 57.2988C133.162 56.5632 133.019 55.9414 132.732 55.4336C132.446 54.9193 132.072 54.5189 131.609 54.2324C131.147 53.946 130.639 53.6986 130.086 53.4902C129.533 53.2819 128.982 53.0866 128.436 52.9043C127.889 52.7155 127.384 52.5072 126.922 52.2793C126.466 52.0514 126.095 51.7292 125.809 51.3125C125.522 50.8893 125.379 50.3783 125.379 49.7793C125.379 48.9395 125.662 48.2689 126.229 47.7676C126.795 47.2663 127.599 47.0156 128.641 47.0156C130.451 47.0156 131.697 48.2689 132.381 50.7754C132.583 50.8079 132.723 50.7624 132.801 50.6387C132.586 49.0501 132.114 47.9336 131.385 47.2891C130.662 46.6445 129.747 46.3223 128.641 46.3223ZM140.77 59.6621C140.717 56.9408 140.691 54.8867 140.691 53.5C140.691 51.8984 140.724 50.0788 140.789 48.041C140.802 47.5462 141.889 47.2337 144.051 47.1035C144.09 46.9798 144.09 46.8268 144.051 46.6445C142.345 46.6966 141.014 46.7227 140.057 46.7227C139.256 46.7227 138.12 46.6966 136.648 46.6445C136.596 46.7617 136.596 46.9147 136.648 47.1035C138.146 47.2467 138.901 47.5592 138.914 48.041C138.979 49.571 139.012 51.3906 139.012 53.5C139.012 55.5638 138.973 57.6178 138.895 59.6621C138.882 60.1439 138.126 60.4564 136.629 60.5996C136.577 60.7038 136.577 60.8568 136.629 61.0586C137.736 61.0195 138.872 61 140.037 61C141.424 61 142.755 61.0195 144.031 61.0586C144.083 60.9544 144.083 60.8014 144.031 60.5996C141.87 60.4694 140.783 60.1569 140.77 59.6621ZM136.336 47.4844C136.225 47.0547 136.238 46.6348 136.375 46.2246C136.948 46.2246 137.723 46.2409 138.699 46.2734C139.682 46.306 140.366 46.3223 140.75 46.3223C141.03 46.3223 141.57 46.3158 142.371 46.3027C143.172 46.2897 143.865 46.2832 144.451 46.2832C144.575 46.6543 144.581 47.0547 144.471 47.4844C143.032 47.6276 142.306 47.8197 142.293 48.0605C142.215 49.6882 142.176 51.7422 142.176 54.2227C142.176 56.6185 142.208 58.4251 142.273 59.6426C142.273 59.6816 142.29 59.7207 142.322 59.7598C142.355 59.7988 142.4 59.8314 142.459 59.8574C142.524 59.8835 142.589 59.9128 142.654 59.9453C142.719 59.9714 142.807 59.9974 142.918 60.0234C143.035 60.0495 143.133 60.0723 143.211 60.0918C143.289 60.1113 143.393 60.1309 143.523 60.1504C143.66 60.1699 143.768 60.1862 143.846 60.1992C143.93 60.2122 144.041 60.2253 144.178 60.2383C144.321 60.2513 144.419 60.2643 144.471 60.2773C144.581 60.6419 144.562 61.0423 144.412 61.4785C142.01 61.4264 140.551 61.4004 140.037 61.4004C139.686 61.4004 138.458 61.4264 136.355 61.4785C136.193 61.0293 136.193 60.6094 136.355 60.2188C137.768 60.0755 138.481 59.8835 138.494 59.6426C138.572 58.015 138.611 55.9674 138.611 53.5C138.611 51.4036 138.579 49.5905 138.514 48.0605C138.501 47.8197 137.775 47.6276 136.336 47.4844ZM150.125 47.4648C150.835 47.3802 151.583 47.3379 152.371 47.3379C153.237 47.3379 154.012 47.4746 154.695 47.748C155.385 48.0215 155.942 48.373 156.365 48.8027C156.795 49.2259 157.146 49.7272 157.42 50.3066C157.693 50.8861 157.882 51.4622 157.986 52.0352C158.097 52.6016 158.152 53.1842 158.152 53.7832C158.152 55.7559 157.599 57.3346 156.492 58.5195C155.385 59.7044 153.79 60.2969 151.707 60.2969L150.105 60.2773C150.04 57.5755 150.008 55.5573 150.008 54.2227C150.008 51.8073 150.047 49.5547 150.125 47.4648ZM152.225 61.4004C150.044 61.4004 147.866 61.4264 145.691 61.4785C145.529 61.0293 145.529 60.6094 145.691 60.2188C147.104 60.0755 147.817 59.8835 147.83 59.6426C147.908 57.5983 147.947 55.5508 147.947 53.5C147.947 51.4036 147.915 49.5905 147.85 48.0605C147.837 47.8197 147.111 47.6276 145.672 47.4844C145.561 47.0677 145.574 46.6478 145.711 46.2246C146.512 46.2376 149.005 46.2441 153.191 46.2441C154.096 46.2441 154.926 46.2995 155.682 46.4102C156.443 46.5208 157.218 46.7454 158.006 47.084C158.794 47.416 159.458 47.8522 159.998 48.3926C160.538 48.9329 160.978 49.6621 161.316 50.5801C161.655 51.498 161.824 52.5723 161.824 53.8027C161.824 54.9746 161.626 56.013 161.229 56.918C160.831 57.8229 160.311 58.5521 159.666 59.1055C159.028 59.6589 158.276 60.1146 157.41 60.4727C156.544 60.8242 155.691 61.0651 154.852 61.1953C154.012 61.332 153.136 61.4004 152.225 61.4004ZM151.629 47.8164C151.551 50.1016 151.512 52.237 151.512 54.2227C151.512 55.8372 151.538 57.7285 151.59 59.8965C153.641 59.8444 155.18 59.2682 156.209 58.168C157.238 57.0677 157.752 55.6061 157.752 53.7832C157.752 53.0736 157.667 52.3965 157.498 51.752C157.329 51.1009 157.059 50.4694 156.688 49.8574C156.316 49.2454 155.773 48.7507 155.057 48.373C154.347 47.9889 153.51 47.7839 152.547 47.7578C152.228 47.7578 151.922 47.7773 151.629 47.8164ZM145.965 61.0586C147.365 61.0195 149.22 61 151.531 61C152.358 61 153.156 60.9382 153.924 60.8145C154.699 60.6842 155.483 60.4499 156.277 60.1113C157.072 59.7728 157.758 59.3431 158.338 58.8223C158.917 58.3014 159.393 57.6081 159.764 56.7422C160.141 55.8763 160.33 54.89 160.33 53.7832C160.33 49.0241 157.716 46.6445 152.488 46.6445C152.007 46.6445 151.323 46.6543 150.438 46.6738C149.552 46.6934 148.748 46.7031 148.025 46.7031C147.309 46.7031 146.629 46.6836 145.984 46.6445C145.932 46.7617 145.932 46.9147 145.984 47.1035C147.482 47.2467 148.237 47.5592 148.25 48.041C148.315 49.571 148.348 51.3906 148.348 53.5C148.348 55.5638 148.309 57.6178 148.23 59.6621C148.217 60.1439 147.462 60.4564 145.965 60.5996C145.9 60.7493 145.9 60.9023 145.965 61.0586ZM172.137 46.7227H167.225C166.411 46.7227 165.268 46.6966 163.797 46.6445V47.1035C165.294 47.2467 166.049 47.5592 166.062 48.041C166.128 49.571 166.16 51.3906 166.16 53.5C166.16 55.5638 166.121 57.6178 166.043 59.6621C166.03 60.1439 165.275 60.4564 163.777 60.5996C163.751 60.8275 163.751 60.9805 163.777 61.0586C165.034 61.0195 167.954 61 172.537 61C174.139 61 175.343 60.7266 176.15 60.1797C176.958 59.6328 177.687 58.6921 178.338 57.3574C178.286 57.2533 178.172 57.1686 177.996 57.1035C176.811 59.304 174.627 60.4043 171.443 60.4043H167.918C167.853 57.5592 167.82 55.4792 167.82 54.1641L171.004 54.1445C171.284 54.1445 171.544 54.1901 171.785 54.2812C172.033 54.3724 172.228 54.4668 172.371 54.5645C172.521 54.6556 172.693 54.8346 172.889 55.1016C173.084 55.3685 173.221 55.5638 173.299 55.6875C173.377 55.8047 173.514 56.0521 173.709 56.4297C173.904 56.8073 174.035 57.0514 174.1 57.1621C174.301 57.0775 174.428 56.9896 174.48 56.8984C173.829 55.7917 173.504 54.7728 173.504 53.8418C173.504 53.4382 173.595 52.9466 173.777 52.3672C173.966 51.7878 174.201 51.2572 174.48 50.7754C174.428 50.6842 174.301 50.5996 174.1 50.5215C174.048 50.6126 173.943 50.8079 173.787 51.1074C173.637 51.4069 173.536 51.6022 173.484 51.6934C173.439 51.778 173.344 51.9375 173.201 52.1719C173.064 52.4062 172.957 52.5625 172.879 52.6406C172.801 52.7188 172.684 52.8359 172.527 52.9922C172.378 53.1419 172.231 53.2461 172.088 53.3047C171.951 53.3568 171.788 53.4056 171.6 53.4512C171.411 53.4967 171.212 53.5195 171.004 53.5195C169.604 53.5195 168.543 53.5065 167.82 53.4805C167.82 51.9049 167.859 49.8509 167.938 47.3184H171.043C174.227 47.3184 176.411 48.4186 177.596 50.6191C177.771 50.554 177.885 50.4661 177.938 50.3555C177.286 49.0273 176.557 48.0898 175.75 47.543C174.943 46.9961 173.738 46.7227 172.137 46.7227ZM173.484 50.8438L173.904 50.0234C174.451 50.2188 174.796 50.4694 174.939 50.7754C174.646 51.2832 174.399 51.8333 174.197 52.4258C174.002 53.0117 173.904 53.4837 173.904 53.8418C173.904 54.7077 174.249 55.7266 174.939 56.8984C174.783 57.2305 174.451 57.4844 173.943 57.6602C173.702 57.263 173.527 56.957 173.416 56.7422C173.149 56.2995 172.938 55.9707 172.781 55.7559C172.632 55.5345 172.404 55.3132 172.098 55.0918C171.792 54.8704 171.453 54.7533 171.082 54.7402H169.324C169.324 56.179 169.35 57.9336 169.402 60.0039H171.424C173.077 60.0039 174.422 59.6816 175.457 59.0371C176.499 58.3861 177.286 57.5723 177.82 56.5957C178.367 56.7975 178.712 57.0514 178.855 57.3574C178.003 58.7702 177.498 60.1178 177.342 61.4004H169.236C166.665 61.4004 164.754 61.4199 163.504 61.459C163.367 61.0358 163.361 60.6224 163.484 60.2188C164.91 60.0755 165.63 59.8835 165.643 59.6426C165.721 57.5983 165.76 55.5508 165.76 53.5C165.76 51.4036 165.727 49.5905 165.662 48.0605C165.649 47.8197 164.923 47.6276 163.484 47.4844C163.361 47.0286 163.374 46.6087 163.523 46.2246C165.522 46.2897 166.847 46.3223 167.498 46.3223H176.941C177.098 47.5983 177.605 48.9427 178.465 50.3555C178.315 50.668 177.967 50.9219 177.42 51.1172C176.886 50.1471 176.098 49.3398 175.057 48.6953C174.021 48.0443 172.677 47.7188 171.023 47.7188H169.422C169.357 50.056 169.324 51.8496 169.324 53.0996C169.734 53.1126 170.327 53.1191 171.102 53.1191C171.648 53.1191 172.085 52.9368 172.41 52.5723C172.736 52.2012 173.094 51.625 173.484 50.8438ZM192.176 54.7598V53.4805C192.176 51.9766 192.143 50.209 192.078 48.1777C192.065 47.8327 191.352 47.6016 189.939 47.4844C189.848 47.2565 189.803 47.0482 189.803 46.8594C189.803 46.7422 189.848 46.5436 189.939 46.2637C190.929 46.3027 191.922 46.3223 192.918 46.3223C193.921 46.3223 194.949 46.3027 196.004 46.2637C196.095 46.5436 196.141 46.7422 196.141 46.8594C196.141 47.0482 196.095 47.2565 196.004 47.4844C194.656 47.6146 193.976 47.8457 193.963 48.1777C193.878 49.5514 193.836 51.5599 193.836 54.2031C193.836 57.1849 193.878 59.597 193.963 61.4395L193.162 61.459L183.895 50.1211C183.895 50.2383 183.891 50.4531 183.885 50.7656C183.878 51.0716 183.875 51.3092 183.875 51.4785C183.875 54.623 183.917 57.3021 184.002 59.5156C184.015 59.8672 184.728 60.1016 186.141 60.2188C186.232 60.4466 186.277 60.6549 186.277 60.8438C186.277 60.987 186.232 61.1986 186.141 61.4785C185.138 61.4395 184.145 61.4199 183.162 61.4199C182.16 61.4199 181.131 61.4395 180.076 61.4785C179.985 61.1986 179.939 60.987 179.939 60.8438C179.939 60.6549 179.985 60.4466 180.076 60.2188C181.424 60.0885 182.104 59.8542 182.117 59.5156C182.195 58.1484 182.234 56.1432 182.234 53.5C182.234 51.4753 182.208 49.6686 182.156 48.0801C181.733 47.748 181.089 47.5495 180.223 47.4844C180.125 47.3086 180.076 47.1068 180.076 46.8789C180.076 46.638 180.138 46.4199 180.262 46.2246C181.622 46.2897 183.341 46.3223 185.418 46.3223L192.176 54.7598ZM193.436 54.2031C193.436 52.2305 193.478 50.222 193.562 48.1777C193.589 47.5918 194.308 47.2337 195.721 47.1035C195.773 46.9928 195.773 46.8398 195.721 46.6445C194.49 46.6836 193.618 46.7031 193.104 46.7031C192.29 46.7031 191.362 46.6836 190.32 46.6445C190.268 46.8398 190.268 46.9928 190.32 47.1035C191.746 47.2337 192.465 47.5918 192.479 48.1777C192.544 50.209 192.576 51.9766 192.576 53.4805C192.576 54.3594 192.563 55.5443 192.537 57.0352L184.119 46.7227C182.654 46.7227 181.44 46.6966 180.477 46.6445C180.424 46.8008 180.424 46.9538 180.477 47.1035C181.316 47.1556 182.01 47.4225 182.557 47.9043C182.609 49.4863 182.635 51.3516 182.635 53.5C182.635 55.4727 182.596 57.4779 182.518 59.5156C182.492 60.1081 181.772 60.4694 180.359 60.5996C180.307 60.7038 180.307 60.8568 180.359 61.0586C181.583 61.0195 182.456 61 182.977 61C183.79 61 184.718 61.0195 185.76 61.0586C185.812 60.8568 185.812 60.7038 185.76 60.5996C184.334 60.4694 183.615 60.1081 183.602 59.5156C183.536 57.4909 183.504 55.7266 183.504 54.2227C183.504 52.5039 183.523 50.8014 183.562 49.1152H183.66L193.357 61.0586L193.543 61.0391C193.471 59.5091 193.436 57.2305 193.436 54.2031ZM206.111 61.4004C207.101 61.4004 208.113 61.1758 209.148 60.7266C210.19 60.2708 211.014 59.6035 211.619 58.7246C211.619 58.64 211.58 58.5684 211.502 58.5098C211.43 58.4512 211.349 58.4219 211.258 58.4219C210.281 59.6068 208.846 60.1992 206.951 60.1992C204.952 60.1992 203.442 59.597 202.42 58.3926C201.404 57.1816 200.896 55.6777 200.896 53.8809C200.896 53.0671 200.984 52.2826 201.16 51.5273C201.342 50.7656 201.622 50.0397 202 49.3496C202.384 48.653 202.928 48.0898 203.631 47.6602C204.34 47.2305 205.167 47.0156 206.111 47.0156C206.756 47.0156 207.352 47.1165 207.898 47.3184C208.445 47.5202 208.895 47.7578 209.246 48.0312C209.598 48.3047 209.939 48.6725 210.271 49.1348C210.61 49.5905 210.864 49.9876 211.033 50.3262C211.209 50.6582 211.417 51.0814 211.658 51.5957C211.854 51.5697 211.974 51.498 212.02 51.3809C211.538 49.4473 210.809 48.1224 209.832 47.4062C208.862 46.6836 207.622 46.3223 206.111 46.3223C205.499 46.3223 204.874 46.3971 204.236 46.5469C203.598 46.6901 202.941 46.9505 202.264 47.3281C201.593 47.6992 201.001 48.1615 200.486 48.7148C199.972 49.2617 199.549 49.9844 199.217 50.8828C198.885 51.7747 198.719 52.7741 198.719 53.8809C198.719 54.9876 198.885 55.987 199.217 56.8789C199.549 57.7708 199.972 58.4902 200.486 59.0371C201.001 59.584 201.593 60.043 202.264 60.4141C202.941 60.7786 203.598 61.0326 204.236 61.1758C204.874 61.3255 205.499 61.4004 206.111 61.4004ZM211.414 52.0352C211.134 51.4102 210.877 50.8958 210.643 50.4922C210.408 50.082 210.096 49.6263 209.705 49.125C209.314 48.6172 208.849 48.2233 208.309 47.9434C207.768 47.6634 207.163 47.4941 206.492 47.4355C205.75 47.4941 205.102 47.7318 204.549 48.1484C203.995 48.5586 203.566 49.0859 203.26 49.7305C202.96 50.375 202.739 51.0456 202.596 51.7422C202.459 52.4323 202.391 53.1452 202.391 53.8809C202.391 55.5215 202.804 56.8984 203.631 58.0117C204.458 59.125 205.691 59.7207 207.332 59.7988C208.921 59.7207 210.167 59.1283 211.072 58.0215C211.326 58.0215 211.548 58.1061 211.736 58.2754C211.925 58.4382 212.02 58.6335 212.02 58.8613C211.362 59.8184 210.473 60.5475 209.354 61.0488C208.234 61.5501 207.153 61.8008 206.111 61.8008C205.46 61.8008 204.799 61.7227 204.129 61.5664C203.465 61.4167 202.775 61.1497 202.059 60.7656C201.349 60.375 200.721 59.89 200.174 59.3105C199.627 58.7311 199.181 57.9727 198.836 57.0352C198.491 56.0911 198.318 55.0397 198.318 53.8809C198.318 52.6699 198.497 51.5892 198.855 50.6387C199.214 49.6816 199.673 48.9167 200.232 48.3438C200.792 47.7708 201.447 47.2956 202.195 46.918C202.944 46.5339 203.67 46.2734 204.373 46.1367C205.083 45.9935 205.796 45.9219 206.512 45.9219C207.488 45.9219 208.549 46.0521 209.695 46.3125C210.841 46.5729 211.661 46.7357 212.156 46.8008C211.941 47.6406 211.857 48.3796 211.902 49.0176C211.948 49.6491 212.133 50.4238 212.459 51.3418C212.27 51.7259 211.922 51.957 211.414 52.0352ZM222.869 59.623C222.882 59.8639 223.608 60.056 225.047 60.1992C225.138 60.5833 225.125 60.9967 225.008 61.4395C223.217 61.4134 221.87 61.4004 220.965 61.4004C220.073 61.4004 218.732 61.4134 216.941 61.4395C216.733 61.0553 216.733 60.6419 216.941 60.1992C218.361 60.056 219.077 59.8704 219.09 59.6426C219.155 57.8392 219.194 56.2246 219.207 54.7988L215.564 48.4609C215.245 47.9271 214.493 47.6016 213.309 47.4844C213.257 47.2826 213.23 47.0872 213.23 46.8984C213.23 46.6966 213.27 46.4785 213.348 46.2441C214.721 46.2962 216.339 46.3223 218.201 46.3223C219.549 46.3223 220.545 46.3092 221.189 46.2832C221.255 46.5046 221.287 46.6966 221.287 46.8594C221.287 47.0482 221.255 47.263 221.189 47.5039C220.493 47.556 220.011 47.6146 219.744 47.6797C219.477 47.7448 219.344 47.8457 219.344 47.9824C219.344 48.0215 220.138 49.4668 221.727 52.3184C223.497 49.3757 224.383 47.888 224.383 47.8555C224.383 47.7904 224.344 47.7318 224.266 47.6797C224.188 47.6276 224.08 47.5853 223.943 47.5527C223.813 47.5202 223.689 47.4974 223.572 47.4844C223.462 47.4714 223.331 47.4583 223.182 47.4453C223.038 47.4258 222.954 47.416 222.928 47.416C222.817 47.071 222.837 46.6803 222.986 46.2441C224.184 46.2962 225.076 46.3223 225.662 46.3223C226.209 46.3223 227.003 46.2962 228.045 46.2441C228.195 46.6934 228.195 47.1068 228.045 47.4844C227.042 47.5755 226.382 47.875 226.062 48.3828L222.762 53.6758C222.762 56.319 222.798 58.3014 222.869 59.623ZM219.49 59.6621C219.471 60.1439 218.715 60.4564 217.225 60.5996C217.16 60.7624 217.16 60.9219 217.225 61.0781C220.102 61.026 222.57 61.0195 224.627 61.0586C224.679 60.9284 224.679 60.7689 224.627 60.5801C222.465 60.4499 221.378 60.1439 221.365 59.6621C221.3 57.7936 221.268 56.3451 221.268 55.3164L225.73 48.1777C226.115 47.5527 226.792 47.1947 227.762 47.1035C227.82 46.9928 227.82 46.8398 227.762 46.6445C227.033 46.6836 226.294 46.7031 225.545 46.7031C224.868 46.7031 224.109 46.6836 223.27 46.6445C223.211 46.7487 223.211 46.9017 223.27 47.1035C224.227 47.2077 224.738 47.4193 224.803 47.7383C224.829 47.862 224.79 48.0085 224.686 48.1777L221.15 54.0176L217.947 48.3047C217.719 47.875 217.788 47.5918 218.152 47.4551C218.523 47.3118 219.409 47.1947 220.809 47.1035C220.861 46.9147 220.861 46.7617 220.809 46.6445C218.888 46.7357 216.492 46.7357 213.621 46.6445C213.569 46.7617 213.569 46.9147 213.621 47.1035C214.773 47.2077 215.542 47.6081 215.926 48.3047L219.607 54.7207C219.594 56.2507 219.555 57.8978 219.49 59.6621Z" fill="white"/>
</svg>
